<svg width="320" height="200" viewBox="0 0 320 200" xmlns="http://www.w3.org/2000/svg">
  <defs>
    <linearGradient id="blogGrad3" x1="0%" y1="0%" x2="100%" y2="100%">
      <stop offset="0%" style="stop-color:#FF9800;stop-opacity:1" />
      <stop offset="100%" style="stop-color:#FFB74D;stop-opacity:1" />
    </linearGradient>
  </defs>
  
  <!-- Фон -->
  <rect width="320" height="200" fill="url(#blogGrad3)"/>
  
  <!-- Триатлон символы -->
  <g transform="translate(160, 100)">
    <!-- Плавание -->
    <g transform="translate(-60, 0)">
      <circle cx="0" cy="0" r="25" fill="white" opacity="0.9"/>
      <path d="M -15,-5 Q -10,-15 0,-10 Q 10,-15 15,-5 Q 10,5 0,0 Q -10,5 -15,-5" fill="#FF9800"/>
    </g>
    
    <!-- Велосипед -->
    <g transform="translate(0, 0)">
      <circle cx="0" cy="0" r="25" fill="white" opacity="0.9"/>
      <circle cx="-8" cy="5" r="8" fill="none" stroke="#FF9800" stroke-width="2"/>
      <circle cx="8" cy="5" r="8" fill="none" stroke="#FF9800" stroke-width="2"/>
      <path d="M -8,5 L 0,-5 L 8,5" stroke="#FF9800" stroke-width="2" fill="none"/>
    </g>
    
    <!-- Бег -->
    <g transform="translate(60, 0)">
      <circle cx="0" cy="0" r="25" fill="white" opacity="0.9"/>
      <circle cx="0" cy="-8" r="4" fill="#FF9800"/>
      <path d="M 0,-4 L 0,8 M -5,0 L 5,4 M -3,8 L 3,12" stroke="#FF9800" stroke-width="2" stroke-linecap="round"/>
    </g>
  </g>
  
  <!-- Декоративные элементы -->
  <circle cx="50" cy="50" r="18" fill="white" opacity="0.2"/>
  <circle cx="270" cy="150" r="22" fill="white" opacity="0.15"/>
</svg>