<svg xmlns="http://www.w3.org/2000/svg" style="display: none;">
  <!-- Логотип Nexcent -->
  <symbol id="nexcent-logo" viewBox="0 0 24 24">
    <path d="M12 2L2 7L12 12L22 7L12 2Z" fill="#4CAF50"/>
    <path d="M2 17L12 22L22 17" stroke="#4CAF50" stroke-width="2" fill="none"/>
    <path d="M2 12L12 17L22 12" stroke="#4CAF50" stroke-width="2" fill="none"/>
  </symbol>
  
  <!-- Иконка членства -->
  <symbol id="membership-icon" viewBox="0 0 64 64">
    <circle cx="32" cy="32" r="30" fill="#E8F5E8"/>
    <path d="M32 16C26.48 16 22 20.48 22 26C22 31.52 26.48 36 32 36C37.52 36 42 31.52 42 26C42 20.48 37.52 16 32 16Z" fill="#4CAF50"/>
    <path d="M16 48C16 40.27 22.27 34 30 34H34C41.73 34 48 40.27 48 48V50H16V48Z" fill="#4CAF50"/>
  </symbol>
  
  <!-- Иконка национальных ассоциаций -->
  <symbol id="national-icon" viewBox="0 0 64 64">
    <circle cx="32" cy="32" r="30" fill="#FFF3E0"/>
    <path d="M32 12L38 24H50L40 32L44 44L32 38L20 44L24 32L14 24H26L32 12Z" fill="#FF9800"/>
  </symbol>
  
  <!-- Иконка клубов -->
  <symbol id="clubs-icon" viewBox="0 0 64 64">
    <circle cx="32" cy="32" r="30" fill="#E3F2FD"/>
    <path d="M20 20H44V44H20V20Z" fill="#2196F3" rx="4"/>
    <circle cx="26" cy="26" r="3" fill="white"/>
    <circle cx="38" cy="26" r="3" fill="white"/>
    <circle cx="26" cy="38" r="3" fill="white"/>
    <circle cx="38" cy="38" r="3" fill="white"/>
  </symbol>
  
  <!-- Статистические иконки -->
  <symbol id="members-icon" viewBox="0 0 48 48">
    <rect width="48" height="48" rx="8" fill="#E8F5E8"/>
    <path d="M24 14C20.69 14 18 16.69 18 20C18 23.31 20.69 26 24 26C27.31 26 30 23.31 30 20C30 16.69 27.31 14 24 14Z" fill="#4CAF50"/>
    <path d="M12 34C12 29.58 15.58 26 20 26H28C32.42 26 36 29.58 36 34V36H12V34Z" fill="#4CAF50"/>
  </symbol>
  
  <symbol id="clubs-stat-icon" viewBox="0 0 48 48">
    <rect width="48" height="48" rx="8" fill="#FFF3E0"/>
    <path d="M24 12L28 20H36L30 26L32 34L24 30L16 34L18 26L12 20H20L24 12Z" fill="#FF9800"/>
  </symbol>
  
  <symbol id="bookings-icon" viewBox="0 0 48 48">
    <rect width="48" height="48" rx="8" fill="#E3F2FD"/>
    <path d="M16 16H32V32H16V16Z" fill="#2196F3" rx="2"/>
    <path d="M20 20H28V24H20V20Z" fill="white"/>
    <path d="M20 26H28V28H20V26Z" fill="white"/>
  </symbol>
  
  <symbol id="payments-icon" viewBox="0 0 48 48">
    <rect width="48" height="48" rx="8" fill="#FCE4EC"/>
    <circle cx="24" cy="24" r="10" fill="#E91E63"/>
    <path d="M24 18V30M20 22L28 22" stroke="white" stroke-width="2" stroke-linecap="round"/>
  </symbol>
  
  <!-- Социальные иконки -->
  <symbol id="facebook-icon" viewBox="0 0 24 24">
    <path d="M24 12.073c0-6.627-5.373-12-12-12s-12 5.373-12 12c0 5.99 4.388 10.954 10.125 11.854v-8.385H7.078v-3.47h3.047V9.43c0-3.007 1.792-4.669 4.533-4.669 1.312 0 2.686.235 2.686.235v2.953H15.83c-1.491 0-1.956.925-1.956 1.874v2.25h3.328l-.532 3.47h-2.796v8.385C19.612 23.027 24 18.062 24 12.073z" fill="currentColor"/>
  </symbol>
  
  <symbol id="twitter-icon" viewBox="0 0 24 24">
    <path d="M23.953 4.57a10 10 0 01-2.825.775 4.958 4.958 0 002.163-2.723c-.951.555-2.005.959-3.127 1.184a4.92 4.92 0 00-8.384 4.482C7.69 8.095 4.067 6.13 1.64 3.162a4.822 4.822 0 00-.666 2.475c0 1.71.87 3.213 2.188 4.096a4.904 4.904 0 01-2.228-.616v.06a4.923 4.923 0 003.946 4.827 4.996 4.996 0 01-2.212.085 4.936 4.936 0 004.604 3.417 9.867 9.867 0 01-6.102 2.105c-.39 0-.779-.023-1.17-.067a13.995 13.995 0 007.557 2.209c9.053 0 13.998-7.496 13.998-13.985 0-.21 0-.42-.015-.63A9.935 9.935 0 0024 4.59z" fill="currentColor"/>
  </symbol>
  
  <symbol id="instagram-icon" viewBox="0 0 24 24">
    <path d="M12 2.163c3.204 0 3.584.012 4.85.07 3.252.148 4.771 1.691 4.919 4.919.058 1.265.069 1.645.069 4.849 0 3.205-.012 3.584-.069 4.849-.149 3.225-1.664 4.771-4.919 4.919-1.266.058-1.644.07-4.85.07-3.204 0-3.584-.012-4.849-.07-3.26-.149-4.771-1.699-4.919-4.92-.058-1.265-.07-1.644-.07-4.849 0-3.204.013-3.583.07-4.849.149-3.227 1.664-4.771 4.919-4.919 1.266-.057 1.645-.069 4.849-.069zm0-2.163c-3.259 0-3.667.014-4.947.072-4.358.2-6.78 2.618-6.98 6.98-.059 1.281-.073 1.689-.073 4.948 0 3.259.014 3.668.072 4.948.2 4.358 2.618 6.78 6.98 6.98 1.281.058 1.689.072 4.948.072 3.259 0 3.668-.014 4.948-.072 4.354-.2 6.782-2.618 6.979-6.98.059-1.28.073-1.689.073-4.948 0-3.259-.014-3.667-.072-4.947-.196-4.354-2.617-6.78-6.979-6.98-1.281-.059-1.69-.073-4.949-.073zm0 5.838c-3.403 0-6.162 2.759-6.162 6.162s2.759 6.163 6.162 6.163 6.162-2.759 6.162-6.163c0-3.403-2.759-6.162-6.162-6.162zm0 10.162c-2.209 0-4-1.79-4-4 0-2.209 1.791-4 4-4s4 1.791 4 4c0 2.21-1.791 4-4 4zm6.406-11.845c-.796 0-1.441.645-1.441 1.44s.645 1.44 1.441 1.44c.795 0 1.439-.645 1.439-1.44s-.644-1.44-1.439-1.44z" fill="currentColor"/>
  </symbol>
  
  <symbol id="linkedin-icon" viewBox="0 0 24 24">
    <path d="M20.447 20.452h-3.554v-5.569c0-1.328-.027-3.037-1.852-3.037-1.853 0-2.136 1.445-2.136 2.939v5.667H9.351V9h3.414v1.561h.046c.477-.9 1.637-1.85 3.37-1.85 3.601 0 4.267 2.37 4.267 5.455v6.286zM5.337 7.433c-1.144 0-2.063-.926-2.063-2.065 0-1.138.92-2.063 2.063-2.063 1.14 0 2.064.925 2.064 2.063 0 1.139-.925 2.065-2.064 2.065zm1.782 13.019H3.555V9h3.564v11.452zM22.225 0H1.771C.792 0 0 .774 0 1.729v20.542C0 23.227.792 24 1.771 24h20.451C23.2 24 24 23.227 24 22.271V1.729C24 .774 23.2 0 22.222 0h.003z" fill="currentColor"/>
  </symbol>
</svg>